<control> default_path=Vibrato\
<region> hikey=c#3 pitch_keycenter=c3 sample=3_C_f.wav offset=9895
<region> lokey=d3 hikey=e3 pitch_keycenter=d#3 sample=3_Eb_f.wav offset=9609
<region> lokey=f3 hikey=g3 pitch_keycenter=f#3 sample=3_Gb_f.wav offset=10482
<region> lokey=g#3 hikey=a#3 pitch_keycenter=a#3 sample=3_A_f.wav offset=10836
<region> lokey=b3 hikey=c#4 pitch_keycenter=b3 sample=4_C_f.wav offset=8038
<region> lokey=d4 hikey=e4 pitch_keycenter=d#4 sample=4_Eb_f.wav offset=7944
<region> lokey=f4 hikey=g4 pitch_keycenter=f#4 sample=4_Gb_f.wav offset=11103
<region> lokey=g#4 hikey=a#4 pitch_keycenter=g#4 sample=4_A_f.wav offset=11528
<region> lokey=b4 hikey=c#5 pitch_keycenter=c5 sample=5_C_f.wav offset=7978
<region> lokey=d5 hikey=e5 pitch_keycenter=d#5 sample=5_Eb_f.wav offset=10732
<region> lokey=f5 hikey=g5 pitch_keycenter=f#5 sample=5_Gb_f.wav offset=9920
<region> lokey=g#5 pitch_keycenter=a5 sample=5_A_f.wav offset=8307
